<svg id="prefix__Warstwa_1" data-name="Warstwa 1" xmlns="http://www.w3.org/2000/svg" viewBox="0 0 765.96 590.34"><defs><linearGradient id="prefix__Gradient_bez_nazwy_6" x1="500" y1="207.13" x2="500" y2="757.13" gradientUnits="userSpaceOnUse"><stop offset="0" stop-color="#36a9e1"/><stop offset="1" stop-color="#1d71b8"/></linearGradient><style>.prefix__cls-2{fill:#2d2e83}.prefix__cls-3{fill:#4082ed}.prefix__cls-5{fill:#8ae3ff}</style></defs><path d="M796.35 207.13a15.52 15.52 0 0 0-12.08 5.93 37.48 37.48 0 0 1-58.54 0 15.52 15.52 0 0 0-12.08-5.93 15.52 15.52 0 0 0-12.08 5.93 37.48 37.48 0 0 1-58.54 0 15.53 15.53 0 0 0-12.03-5.93h-2.3a15.52 15.52 0 0 0-12.08 5.93 37.48 37.48 0 0 1-58.54 0 15.53 15.53 0 0 0-12.08-5.93h-2.3a15.52 15.52 0 0 0-12.08 5.93 37.48 37.48 0 0 1-58.54 0 15.53 15.53 0 0 0-12.08-5.93h-2.3a15.52 15.52 0 0 0-12.08 5.93 37.48 37.48 0 0 1-58.54 0 15.53 15.53 0 0 0-12.08-5.93h-2.3a15.52 15.52 0 0 0-12.08 5.93 37.48 37.48 0 0 1-58.54 0 15.53 15.53 0 0 0-12.08-5.93h-2.3a15.52 15.52 0 0 0-12.08 5.93 37.48 37.48 0 0 1-58.54 0 15.53 15.53 0 0 0-12.08-5.93h-3.18a15.27 15.27 0 0 0-15.32 15.27v534.73h625V222.4a15.27 15.27 0 0 0-15.27-15.27ZM245 737.13a37.5 37.5 0 1 1 37.5-37.5 37.5 37.5 0 0 1-37.5 37.5Zm0-85a37.5 37.5 0 1 1 37.5-37.5 37.5 37.5 0 0 1-37.5 37.5Zm0-85a37.5 37.5 0 1 1 37.5-37.5 37.5 37.5 0 0 1-37.5 37.5Zm0-85a37.5 37.5 0 1 1 37.5-37.5 37.5 37.5 0 0 1-37.5 37.5Zm0-85a37.5 37.5 0 1 1 37.5-37.5 37.5 37.5 0 0 1-37.5 37.5Zm2.3-85a37.5 37.5 0 1 1 37.5-37.5 37.5 37.5 0 0 1-37.5 37.5Zm82.7 425a37.5 37.5 0 1 1 37.5-37.5 37.5 37.5 0 0 1-37.5 37.5Zm0-85a37.5 37.5 0 1 1 37.5-37.5 37.5 37.5 0 0 1-37.5 37.5Zm0-85a37.5 37.5 0 1 1 37.5-37.5 37.5 37.5 0 0 1-37.5 37.5Zm0-85a37.5 37.5 0 1 1 37.5-37.5 37.5 37.5 0 0 1-37.5 37.5Zm0-85a37.5 37.5 0 1 1 37.5-37.5 37.5 37.5 0 0 1-37.5 37.5Zm2.3-85a37.5 37.5 0 1 1 37.5-37.5 37.5 37.5 0 0 1-37.5 37.5Zm82.7 425a37.5 37.5 0 1 1 37.5-37.5 37.5 37.5 0 0 1-37.5 37.5Zm0-85a37.5 37.5 0 1 1 37.5-37.5 37.5 37.5 0 0 1-37.5 37.5Zm0-85a37.5 37.5 0 1 1 37.5-37.5 37.5 37.5 0 0 1-37.5 37.5Zm0-85a37.5 37.5 0 1 1 37.5-37.5 37.5 37.5 0 0 1-37.5 37.5Zm0-85a37.5 37.5 0 1 1 37.5-37.5 37.5 37.5 0 0 1-37.5 37.5Zm2.3-85a37.5 37.5 0 1 1 37.5-37.5 37.5 37.5 0 0 1-37.5 37.5Zm82.7 425a37.5 37.5 0 1 1 37.5-37.5 37.5 37.5 0 0 1-37.5 37.5Zm0-85a37.5 37.5 0 1 1 37.5-37.5 37.5 37.5 0 0 1-37.5 37.5Zm0-85a37.5 37.5 0 1 1 37.5-37.5 37.5 37.5 0 0 1-37.5 37.5Zm0-85a37.5 37.5 0 1 1 37.5-37.5 37.5 37.5 0 0 1-37.5 37.5Zm0-85a37.5 37.5 0 1 1 37.5-37.5 37.5 37.5 0 0 1-37.5 37.5Zm2.3-85a37.5 37.5 0 1 1 37.5-37.5 37.5 37.5 0 0 1-37.5 37.5Zm82.7 425a37.5 37.5 0 1 1 37.5-37.5 37.5 37.5 0 0 1-37.5 37.5Zm0-85a37.5 37.5 0 1 1 37.5-37.5 37.5 37.5 0 0 1-37.5 37.5Zm0-85a37.5 37.5 0 1 1 37.5-37.5 37.5 37.5 0 0 1-37.5 37.5Zm0-85a37.5 37.5 0 1 1 37.5-37.5 37.5 37.5 0 0 1-37.5 37.5Zm0-85a37.5 37.5 0 1 1 37.5-37.5 37.5 37.5 0 0 1-37.5 37.5Zm2.3-85a37.5 37.5 0 1 1 37.5-37.5 37.5 37.5 0 0 1-37.5 37.5Zm82.7 425a37.5 37.5 0 1 1 37.5-37.5 37.5 37.5 0 0 1-37.5 37.5Zm0-85a37.5 37.5 0 1 1 37.5-37.5 37.5 37.5 0 0 1-37.5 37.5Zm0-85a37.5 37.5 0 1 1 37.5-37.5 37.5 37.5 0 0 1-37.5 37.5Zm0-85a37.5 37.5 0 1 1 37.5-37.5 37.5 37.5 0 0 1-37.5 37.5Zm0-85a37.5 37.5 0 1 1 37.5-37.5 37.5 37.5 0 0 1-37.5 37.5Zm2.3-85a37.5 37.5 0 1 1 37.5-37.5 37.5 37.5 0 0 1-37.5 37.5Zm82.7 425a37.5 37.5 0 1 1 37.5-37.5 37.5 37.5 0 0 1-37.5 37.5Zm0-85a37.5 37.5 0 1 1 37.5-37.5 37.5 37.5 0 0 1-37.5 37.5Zm0-85a37.5 37.5 0 1 1 37.5-37.5 37.5 37.5 0 0 1-37.5 37.5Zm0-85a37.5 37.5 0 1 1 37.5-37.5 37.5 37.5 0 0 1-37.5 37.5Zm0-85a37.5 37.5 0 1 1 37.5-37.5 37.5 37.5 0 0 1-37.5 37.5Zm0-85a37.5 37.5 0 1 1 37.5-37.5 37.5 37.5 0 0 1-37.5 37.5Z" transform="translate(-117.02 -204.83)" fill="url(#prefix__Gradient_bez_nazwy_6)"/><path class="prefix__cls-2" d="M695.48 496.3 695.48 552.3 70.48 552.3 70.48 496.3 11.37 573.2 70.48 573.2 695.48 573.2 696.56 573.2 754.59 573.2 695.48 496.3z"/><path class="prefix__cls-3" d="M70.48 552.3H695.48V559.19H70.48z"/><path class="prefix__cls-3" d="M754.59 573.2 695.48 496.3 695.48 503.19 749.29 573.2 754.59 573.2z"/><path class="prefix__cls-3" d="M70.48 503.19 70.48 496.3 11.37 573.2 16.66 573.2 70.48 503.19z"/><path fill="#29235c" d="M0 572.98H765.96V590.34H0z"/><path class="prefix__cls-2" d="M330 737.13a37.5 37.5 0 0 0 37.5-37.5v-1.15a37.49 37.49 0 0 1-74.94 0v1.15a37.5 37.5 0 0 0 37.44 37.5ZM415 567.13a37.5 37.5 0 0 0 37.5-37.5v-1.15a37.49 37.49 0 0 1-74.94 0v1.15a37.5 37.5 0 0 0 37.44 37.5ZM415 652.13a37.5 37.5 0 0 0 37.5-37.5v-1.15a37.49 37.49 0 0 1-74.94 0v1.15a37.5 37.5 0 0 0 37.44 37.5ZM417.3 312.13a37.5 37.5 0 0 0 37.5-37.5v-1.15a37.49 37.49 0 0 1-74.94 0v1.15a37.5 37.5 0 0 0 37.44 37.5ZM415 397.13a37.5 37.5 0 0 0 37.5-37.5v-1.15a37.49 37.49 0 0 1-74.94 0v1.15a37.5 37.5 0 0 0 37.44 37.5ZM415 482.13a37.5 37.5 0 0 0 37.5-37.5v-1.15a37.49 37.49 0 0 1-74.94 0v1.15a37.5 37.5 0 0 0 37.44 37.5ZM500 482.13a37.5 37.5 0 0 0 37.5-37.5v-1.15a37.49 37.49 0 0 1-74.94 0v1.15a37.5 37.5 0 0 0 37.44 37.5ZM500 567.13a37.5 37.5 0 0 0 37.5-37.5v-1.15a37.49 37.49 0 0 1-74.94 0v1.15a37.5 37.5 0 0 0 37.44 37.5ZM500 397.13a37.5 37.5 0 0 0 37.5-37.5v-1.15a37.49 37.49 0 0 1-74.94 0v1.15a37.5 37.5 0 0 0 37.44 37.5ZM502.3 312.13a37.5 37.5 0 0 0 37.5-37.5v-1.15a37.49 37.49 0 0 1-74.94 0v1.15a37.5 37.5 0 0 0 37.44 37.5ZM415 737.13a37.5 37.5 0 0 0 37.5-37.5v-1.15a37.49 37.49 0 0 1-74.94 0v1.15a37.5 37.5 0 0 0 37.44 37.5ZM245 567.13a37.5 37.5 0 0 0 37.5-37.5v-1.15a37.49 37.49 0 0 1-74.94 0v1.15a37.5 37.5 0 0 0 37.44 37.5ZM245 482.13a37.5 37.5 0 0 0 37.5-37.5v-1.15a37.49 37.49 0 0 1-74.94 0v1.15a37.5 37.5 0 0 0 37.44 37.5ZM245 397.13a37.5 37.5 0 0 0 37.5-37.5v-1.15a37.49 37.49 0 0 1-74.94 0v1.15a37.5 37.5 0 0 0 37.44 37.5ZM245 737.13a37.5 37.5 0 0 0 37.5-37.5v-1.15a37.49 37.49 0 0 1-74.94 0v1.15a37.5 37.5 0 0 0 37.44 37.5ZM330 652.13a37.5 37.5 0 0 0 37.5-37.5v-1.15a37.49 37.49 0 0 1-74.94 0v1.15a37.5 37.5 0 0 0 37.44 37.5ZM247.3 312.13a37.5 37.5 0 0 0 37.5-37.5v-1.15a37.49 37.49 0 0 1-74.94 0v1.15a37.5 37.5 0 0 0 37.44 37.5ZM330 482.13a37.5 37.5 0 0 0 37.5-37.5v-1.15a37.49 37.49 0 0 1-74.94 0v1.15a37.5 37.5 0 0 0 37.44 37.5ZM330 567.13a37.5 37.5 0 0 0 37.5-37.5v-1.15a37.49 37.49 0 0 1-74.94 0v1.15a37.5 37.5 0 0 0 37.44 37.5ZM330 397.13a37.5 37.5 0 0 0 37.5-37.5v-1.15a37.49 37.49 0 0 1-74.94 0v1.15a37.5 37.5 0 0 0 37.44 37.5ZM332.3 312.13a37.5 37.5 0 0 0 37.5-37.5v-1.15a37.49 37.49 0 0 1-74.94 0v1.15a37.5 37.5 0 0 0 37.44 37.5ZM245 652.13a37.5 37.5 0 0 0 37.5-37.5v-1.15a37.49 37.49 0 0 1-74.94 0v1.15a37.5 37.5 0 0 0 37.44 37.5ZM755 397.13a37.5 37.5 0 0 0 37.5-37.5v-1.15a37.49 37.49 0 0 1-74.94 0v1.15a37.5 37.5 0 0 0 37.44 37.5ZM670 567.13a37.5 37.5 0 0 0 37.5-37.5v-1.15a37.49 37.49 0 0 1-74.94 0v1.15a37.5 37.5 0 0 0 37.44 37.5ZM500 652.13a37.5 37.5 0 0 0 37.5-37.5v-1.15a37.49 37.49 0 0 1-74.94 0v1.15a37.5 37.5 0 0 0 37.44 37.5ZM670 652.13a37.5 37.5 0 0 0 37.5-37.5v-1.15a37.49 37.49 0 0 1-74.94 0v1.15a37.5 37.5 0 0 0 37.44 37.5ZM755 482.13a37.5 37.5 0 0 0 37.5-37.5v-1.15a37.49 37.49 0 0 1-74.94 0v1.15a37.5 37.5 0 0 0 37.44 37.5ZM755 312.13a37.5 37.5 0 0 0 37.5-37.5v-1.15a37.49 37.49 0 0 1-74.94 0v1.15a37.5 37.5 0 0 0 37.44 37.5ZM755 737.13a37.5 37.5 0 0 0 37.5-37.5v-1.15a37.49 37.49 0 0 1-74.94 0v1.15a37.5 37.5 0 0 0 37.44 37.5ZM797.23 204.83h-.88a15.52 15.52 0 0 0-12.08 5.93 37.48 37.48 0 0 1-58.54 0 15.52 15.52 0 0 0-12.08-5.93 15.52 15.52 0 0 0-12.08 5.93 37.48 37.48 0 0 1-58.54 0 15.53 15.53 0 0 0-12.03-5.93h-2.3a15.52 15.52 0 0 0-12.08 5.93 37.48 37.48 0 0 1-58.54 0 15.53 15.53 0 0 0-12.08-5.93h-2.3a15.52 15.52 0 0 0-12.08 5.93 37.48 37.48 0 0 1-58.54 0 15.53 15.53 0 0 0-12.08-5.93h-2.3a15.52 15.52 0 0 0-12.08 5.93 37.48 37.48 0 0 1-58.54 0 15.53 15.53 0 0 0-12.08-5.93h-2.3a15.52 15.52 0 0 0-12.08 5.93 37.48 37.48 0 0 1-58.54 0 15.53 15.53 0 0 0-12.08-5.93h-2.3a15.52 15.52 0 0 0-12.08 5.93 37.48 37.48 0 0 1-58.54 0 15.53 15.53 0 0 0-12.08-5.93h-3.18a15.27 15.27 0 0 0-15.32 15.27v2.3a15.27 15.27 0 0 1 15.27-15.27H206a15.53 15.53 0 0 1 12 5.93 37.48 37.48 0 0 0 58.54 0 15.52 15.52 0 0 1 12.08-5.93H291a15.53 15.53 0 0 1 12 5.93 37.48 37.48 0 0 0 58.54 0 15.52 15.52 0 0 1 12.08-5.93H376a15.53 15.53 0 0 1 12 5.93 37.48 37.48 0 0 0 58.54 0 15.52 15.52 0 0 1 12.08-5.93H461a15.53 15.53 0 0 1 12 5.93 37.48 37.48 0 0 0 58.54 0 15.52 15.52 0 0 1 12.08-5.93H546a15.53 15.53 0 0 1 12 5.93 37.48 37.48 0 0 0 58.54 0 15.52 15.52 0 0 1 12.08-5.93H631a15.53 15.53 0 0 1 12 5.93 37.48 37.48 0 0 0 58.54 0 15.52 15.52 0 0 1 12.08-5.93 15.52 15.52 0 0 1 12.08 5.93 37.48 37.48 0 0 0 58.54 0 15.52 15.52 0 0 1 12.08-5.93h.88a15.27 15.27 0 0 1 15.3 15.27v-2.3a15.27 15.27 0 0 0-15.27-15.27ZM755 567.13a37.5 37.5 0 0 0 37.5-37.5v-1.15a37.49 37.49 0 0 1-74.94 0v1.15a37.5 37.5 0 0 0 37.44 37.5ZM755 652.13a37.5 37.5 0 0 0 37.5-37.5v-1.15a37.49 37.49 0 0 1-74.94 0v1.15a37.5 37.5 0 0 0 37.44 37.5ZM670 737.13a37.5 37.5 0 0 0 37.5-37.5v-1.15a37.49 37.49 0 0 1-74.94 0v1.15a37.5 37.5 0 0 0 37.44 37.5ZM585 482.13a37.5 37.5 0 0 0 37.5-37.5v-1.15a37.49 37.49 0 0 1-74.94 0v1.15a37.5 37.5 0 0 0 37.44 37.5ZM585 397.13a37.5 37.5 0 0 0 37.5-37.5v-1.15a37.49 37.49 0 0 1-74.94 0v1.15a37.5 37.5 0 0 0 37.44 37.5ZM585 567.13a37.5 37.5 0 0 0 37.5-37.5v-1.15a37.49 37.49 0 0 1-74.94 0v1.15a37.5 37.5 0 0 0 37.44 37.5ZM500 737.13a37.5 37.5 0 0 0 37.5-37.5v-1.15a37.49 37.49 0 0 1-74.94 0v1.15a37.5 37.5 0 0 0 37.44 37.5ZM587.3 312.13a37.5 37.5 0 0 0 37.5-37.5v-1.15a37.49 37.49 0 0 1-74.94 0v1.15a37.5 37.5 0 0 0 37.44 37.5ZM672.3 312.13a37.5 37.5 0 0 0 37.5-37.5v-1.15a37.49 37.49 0 0 1-74.94 0v1.15a37.5 37.5 0 0 0 37.44 37.5ZM585 652.13a37.5 37.5 0 0 0 37.5-37.5v-1.15a37.49 37.49 0 0 1-74.94 0v1.15a37.5 37.5 0 0 0 37.44 37.5ZM670 482.13a37.5 37.5 0 0 0 37.5-37.5v-1.15a37.49 37.49 0 0 1-74.94 0v1.15a37.5 37.5 0 0 0 37.44 37.5ZM670 397.13a37.5 37.5 0 0 0 37.5-37.5v-1.15a37.49 37.49 0 0 1-74.94 0v1.15a37.5 37.5 0 0 0 37.44 37.5ZM585 737.13a37.5 37.5 0 0 0 37.5-37.5v-1.15a37.49 37.49 0 0 1-74.94 0v1.15a37.5 37.5 0 0 0 37.44 37.5Z" transform="translate(-117.02 -204.83)"/><path class="prefix__cls-5" d="M415 574.32a37.5 37.5 0 0 0-37.5 37.5v1.4a37.49 37.49 0 0 1 74.92 0v-1.4a37.5 37.5 0 0 0-37.42-37.5ZM330 319.32a37.5 37.5 0 0 0-37.5 37.5v1.4a37.49 37.49 0 0 1 74.92 0v-1.4a37.5 37.5 0 0 0-37.42-37.5ZM332.3 234.32a37.5 37.5 0 0 0-37.5 37.5v1.4a37.49 37.49 0 0 1 74.93 0v-1.4a37.5 37.5 0 0 0-37.43-37.5ZM415 659.32a37.5 37.5 0 0 0-37.5 37.5v1.4a37.49 37.49 0 0 1 74.92 0v-1.4a37.5 37.5 0 0 0-37.42-37.5ZM415 404.32a37.5 37.5 0 0 0-37.5 37.5v1.4a37.49 37.49 0 0 1 74.92 0v-1.4a37.5 37.5 0 0 0-37.42-37.5ZM415 319.32a37.5 37.5 0 0 0-37.5 37.5v1.4a37.49 37.49 0 0 1 74.92 0v-1.4a37.5 37.5 0 0 0-37.42-37.5ZM500 574.32a37.5 37.5 0 0 0-37.5 37.5v1.4a37.49 37.49 0 0 1 74.92 0v-1.4a37.5 37.5 0 0 0-37.42-37.5ZM500 489.32a37.5 37.5 0 0 0-37.5 37.5v1.4a37.49 37.49 0 0 1 74.92 0v-1.4a37.5 37.5 0 0 0-37.42-37.5ZM500 659.32a37.5 37.5 0 0 0-37.5 37.5v1.4a37.49 37.49 0 0 1 74.92 0v-1.4a37.5 37.5 0 0 0-37.42-37.5ZM417.3 234.32a37.5 37.5 0 0 0-37.5 37.5v1.4a37.49 37.49 0 0 1 74.93 0v-1.4a37.5 37.5 0 0 0-37.43-37.5ZM247.3 234.32a37.5 37.5 0 0 0-37.5 37.5v1.4a37.49 37.49 0 0 1 74.93 0v-1.4a37.5 37.5 0 0 0-37.43-37.5ZM245 489.32a37.5 37.5 0 0 0-37.5 37.5v1.4a37.49 37.49 0 0 1 74.92 0v-1.4a37.5 37.5 0 0 0-37.42-37.5ZM245 404.32a37.5 37.5 0 0 0-37.5 37.5v1.4a37.49 37.49 0 0 1 74.92 0v-1.4a37.5 37.5 0 0 0-37.42-37.5ZM330 404.32a37.5 37.5 0 0 0-37.5 37.5v1.4a37.49 37.49 0 0 1 74.92 0v-1.4a37.5 37.5 0 0 0-37.42-37.5ZM245 574.32a37.5 37.5 0 0 0-37.5 37.5v1.4a37.49 37.49 0 0 1 74.92 0v-1.4a37.5 37.5 0 0 0-37.42-37.5ZM245 659.32a37.5 37.5 0 0 0-37.5 37.5v1.4a37.49 37.49 0 0 1 74.92 0v-1.4a37.5 37.5 0 0 0-37.42-37.5ZM245 319.32a37.5 37.5 0 0 0-37.5 37.5v1.4a37.49 37.49 0 0 1 74.92 0v-1.4a37.5 37.5 0 0 0-37.42-37.5ZM500 404.32a37.5 37.5 0 0 0-37.5 37.5v1.4a37.49 37.49 0 0 1 74.92 0v-1.4a37.5 37.5 0 0 0-37.42-37.5ZM330 574.32a37.5 37.5 0 0 0-37.5 37.5v1.4a37.49 37.49 0 0 1 74.92 0v-1.4a37.5 37.5 0 0 0-37.42-37.5ZM330 489.32a37.5 37.5 0 0 0-37.5 37.5v1.4a37.49 37.49 0 0 1 74.92 0v-1.4a37.5 37.5 0 0 0-37.42-37.5ZM330 659.32a37.5 37.5 0 0 0-37.5 37.5v1.4a37.49 37.49 0 0 1 74.92 0v-1.4a37.5 37.5 0 0 0-37.42-37.5ZM415 489.32a37.5 37.5 0 0 0-37.5 37.5v1.4a37.49 37.49 0 0 1 74.92 0v-1.4a37.5 37.5 0 0 0-37.42-37.5ZM670 404.32a37.5 37.5 0 0 0-37.5 37.5v1.4a37.49 37.49 0 0 1 74.92 0v-1.4a37.5 37.5 0 0 0-37.42-37.5ZM500 319.32a37.5 37.5 0 0 0-37.5 37.5v1.4a37.49 37.49 0 0 1 74.92 0v-1.4a37.5 37.5 0 0 0-37.42-37.5ZM755 489.32a37.5 37.5 0 0 0-37.5 37.5v1.4a37.49 37.49 0 0 1 74.92 0v-1.4a37.5 37.5 0 0 0-37.42-37.5ZM670 319.32a37.5 37.5 0 0 0-37.5 37.5v1.4a37.49 37.49 0 0 1 74.92 0v-1.4a37.5 37.5 0 0 0-37.42-37.5ZM672.3 234.32a37.5 37.5 0 0 0-37.5 37.5v1.4a37.49 37.49 0 0 1 74.93 0v-1.4a37.5 37.5 0 0 0-37.43-37.5ZM755 659.32a37.5 37.5 0 0 0-37.5 37.5v1.4a37.49 37.49 0 0 1 74.92 0v-1.4a37.5 37.5 0 0 0-37.42-37.5ZM755 234.32a37.5 37.5 0 0 0-37.5 37.5v1.4a37.49 37.49 0 0 1 74.92 0v-1.4a37.5 37.5 0 0 0-37.42-37.5ZM755 319.32a37.5 37.5 0 0 0-37.5 37.5v1.4a37.49 37.49 0 0 1 74.92 0v-1.4a37.5 37.5 0 0 0-37.42-37.5ZM755 404.32a37.5 37.5 0 0 0-37.5 37.5v1.4a37.49 37.49 0 0 1 74.92 0v-1.4a37.5 37.5 0 0 0-37.42-37.5ZM755 574.32a37.5 37.5 0 0 0-37.5 37.5v1.4a37.49 37.49 0 0 1 74.92 0v-1.4a37.5 37.5 0 0 0-37.42-37.5ZM585 574.32a37.5 37.5 0 0 0-37.5 37.5v1.4a37.49 37.49 0 0 1 74.92 0v-1.4a37.5 37.5 0 0 0-37.42-37.5ZM585 489.32a37.5 37.5 0 0 0-37.5 37.5v1.4a37.49 37.49 0 0 1 74.92 0v-1.4a37.5 37.5 0 0 0-37.42-37.5ZM585 404.32a37.5 37.5 0 0 0-37.5 37.5v1.4a37.49 37.49 0 0 1 74.92 0v-1.4a37.5 37.5 0 0 0-37.42-37.5ZM502.3 234.32a37.5 37.5 0 0 0-37.5 37.5v1.4a37.49 37.49 0 0 1 74.93 0v-1.4a37.5 37.5 0 0 0-37.43-37.5ZM585 659.32a37.5 37.5 0 0 0-37.5 37.5v1.4a37.49 37.49 0 0 1 74.92 0v-1.4a37.5 37.5 0 0 0-37.42-37.5ZM670 659.32a37.5 37.5 0 0 0-37.5 37.5v1.4a37.49 37.49 0 0 1 74.92 0v-1.4a37.5 37.5 0 0 0-37.42-37.5ZM670 489.32a37.5 37.5 0 0 0-37.5 37.5v1.4a37.49 37.49 0 0 1 74.92 0v-1.4a37.5 37.5 0 0 0-37.42-37.5ZM670 574.32a37.5 37.5 0 0 0-37.5 37.5v1.4a37.49 37.49 0 0 1 74.92 0v-1.4a37.5 37.5 0 0 0-37.42-37.5ZM587.3 234.32a37.5 37.5 0 0 0-37.5 37.5v1.4a37.49 37.49 0 0 1 74.93 0v-1.4a37.5 37.5 0 0 0-37.43-37.5ZM585 319.32a37.5 37.5 0 0 0-37.5 37.5v1.4a37.49 37.49 0 0 1 74.92 0v-1.4a37.5 37.5 0 0 0-37.42-37.5Z" transform="translate(-117.02 -204.83)"/></svg>