<svg id="prefix__Warstwa_1" data-name="Warstwa 1" xmlns="http://www.w3.org/2000/svg" viewBox="0 0 75 75"><defs><style>.prefix__cls-1{fill:red}.prefix__cls-2{fill:#ff6a00}.prefix__cls-3{fill:#d90000}.prefix__cls-4{fill:#b34a00}</style></defs><circle class="prefix__cls-1" cx="37.5" cy="37.5" r="37.5"/><circle class="prefix__cls-2" cx="37.5" cy="37.5" r="32.93"/><circle class="prefix__cls-1" cx="37.5" cy="37.5" r="24.48"/><path class="prefix__cls-3" d="M576.1 660a37.5 37.5 0 0 1-37.48-36.39v1.12a37.5 37.5 0 0 0 75 0v-1.12A37.49 37.49 0 0 1 576.1 660Z" transform="translate(-538.6 -587.19)"/><path class="prefix__cls-3" d="M576.1 593.81a32.92 32.92 0 0 1 32.9 31.9v-1a32.93 32.93 0 1 0-65.85 0v1a32.91 32.91 0 0 1 32.95-31.9Z" transform="translate(-538.6 -587.19)"/><path class="prefix__cls-4" d="M576.1 601.81a24.48 24.48 0 0 1 24.46 23.68v-.8a24.48 24.48 0 0 0-49 0v.8a24.47 24.47 0 0 1 24.54-23.68Z" transform="translate(-538.6 -587.19)"/><path d="M576.1 649.17A24.49 24.49 0 0 1 551.62 625v.34a24.48 24.48 0 0 0 49 0V625a24.48 24.48 0 0 1-24.52 24.17Z" transform="translate(-538.6 -587.19)" fill="#ff8f40"/><circle class="prefix__cls-2" cx="37.5" cy="37.5" r="16.31"/><path class="prefix__cls-4" d="M576.1 641a16.29 16.29 0 0 1-16.28-15.67v.64a16.31 16.31 0 1 0 32.62 0v-.64A16.28 16.28 0 0 1 576.1 641Z" transform="translate(-538.6 -587.19)"/></svg>