<svg id="prefix__Warstwa_1" data-name="Warstwa 1" xmlns="http://www.w3.org/2000/svg" viewBox="0 0 75 75"><defs><style>.prefix__cls-2{fill:#ffd500}.prefix__cls-4{fill:#e6d200}.prefix__cls-5{fill:#f3de3f}</style></defs><circle cx="37.5" cy="37.5" r="37.5" fill="#ffed00"/><circle class="prefix__cls-2" cx="37.5" cy="37.5" r="32.93"/><circle cx="37.5" cy="37.5" r="24.48" fill="#ffea00"/><path class="prefix__cls-4" d="M502.05 686a37.49 37.49 0 0 1-37.47-36.39v1.12a37.5 37.5 0 1 0 75 0v-1.12A37.5 37.5 0 0 1 502.05 686Z" transform="translate(-464.55 -613.19)"/><path class="prefix__cls-4" d="M502.05 619.81a32.91 32.91 0 0 1 32.9 31.9v-1a32.93 32.93 0 1 0-65.85 0v1a32.92 32.92 0 0 1 32.95-31.9Z" transform="translate(-464.55 -613.19)"/><path class="prefix__cls-5" d="M502.05 627.81a24.47 24.47 0 0 1 24.46 23.68v-.8a24.48 24.48 0 1 0-49 0v.8a24.48 24.48 0 0 1 24.54-23.68Z" transform="translate(-464.55 -613.19)"/><path d="M502.05 675.17A24.48 24.48 0 0 1 477.58 651v.34a24.48 24.48 0 1 0 49 0V651a24.49 24.49 0 0 1-24.53 24.17Z" transform="translate(-464.55 -613.19)" fill="#ffea80"/><circle class="prefix__cls-2" cx="37.5" cy="37.5" r="16.31"/><path class="prefix__cls-5" d="M502.05 667a16.28 16.28 0 0 1-16.27-15.67v.64a16.31 16.31 0 0 0 32.62 0v-.64A16.29 16.29 0 0 1 502.05 667Z" transform="translate(-464.55 -613.19)"/></svg>